<svg width="18" height="18" viewBox="0 0 18 18" fill="none" xmlns="http://www.w3.org/2000/svg">
<path d="M2.125 4H0.875C0.70924 4 0.550268 3.93415 0.433058 3.81694C0.315848 3.69973 0.25 3.54076 0.25 3.375C0.25 3.20924 0.315848 3.05027 0.433058 2.93306C0.550268 2.81585 0.70924 2.75 0.875 2.75H5.875V0.873749C5.875 0.707988 5.94085 0.549017 6.05806 0.431807C6.17527 0.314597 6.33424 0.248749 6.5 0.248749H11.5C11.6658 0.248749 11.8247 0.314597 11.9419 0.431807C12.0592 0.549017 12.125 0.707988 12.125 0.873749V2.75H17.125C17.2908 2.75 17.4497 2.81585 17.5669 2.93306C17.6842 3.05027 17.75 3.20924 17.75 3.375C17.75 3.54076 17.6842 3.69973 17.5669 3.81694C17.4497 3.93415 17.2908 4 17.125 4H15.875V17.125C15.875 17.2908 15.8092 17.4497 15.6919 17.5669C15.5747 17.6842 15.4158 17.75 15.25 17.75H2.75C2.58424 17.75 2.42527 17.6842 2.30806 17.5669C2.19085 17.4497 2.125 17.2908 2.125 17.125V4ZM10.875 2.75V1.5H7.125V2.75H10.875ZM3.375 16.5H14.625V4H3.375V16.5ZM7.125 14C6.95924 14 6.80027 13.9342 6.68306 13.8169C6.56585 13.6997 6.5 13.5408 6.5 13.375V7.125C6.5 6.95924 6.56585 6.80027 6.68306 6.68306C6.80027 6.56585 6.95924 6.5 7.125 6.5C7.29076 6.5 7.44973 6.56585 7.56694 6.68306C7.68415 6.80027 7.75 6.95924 7.75 7.125V13.375C7.75 13.5408 7.68415 13.6997 7.56694 13.8169C7.44973 13.9342 7.29076 14 7.125 14ZM10.875 14C10.7092 14 10.5503 13.9342 10.4331 13.8169C10.3158 13.6997 10.25 13.5408 10.25 13.375V7.125C10.25 6.95924 10.3158 6.80027 10.4331 6.68306C10.5503 6.56585 10.7092 6.5 10.875 6.5C11.0408 6.5 11.1997 6.56585 11.3169 6.68306C11.4342 6.80027 11.5 6.95924 11.5 7.125V13.375C11.5 13.5408 11.4342 13.6997 11.3169 13.8169C11.1997 13.9342 11.0408 14 10.875 14Z" fill="white"/>
</svg>
