<svg width="43" height="25" viewBox="0 0 43 25" fill="none" xmlns="http://www.w3.org/2000/svg">
<path d="M40.4096 24.5999L34.768 24.5848C34.768 24.5848 34.647 24.5999 34.4504 24.5999C33.9966 24.5999 33.0589 24.4789 31.9548 23.7227C29.9734 22.3463 28.0828 18.928 26.5854 18.928C26.4795 18.928 26.3888 18.9432 26.298 18.9734C24.9973 19.3818 24.604 20.6825 24.604 22.2707C24.604 22.8303 24.2108 23.0874 23.152 23.0874H20.2329C16.9659 23.0874 13.8048 23.0118 10.2504 19.1247C5.01714 13.3923 0.11664 3.19803 0.11664 3.19803C0.11664 3.19803 -0.15561 2.60815 0.131765 2.26028C0.404015 1.94265 1.03927 1.9124 1.28127 1.9124C1.34177 1.9124 1.37201 1.9124 1.37201 1.9124H7.42202C7.42202 1.9124 7.98164 2.01828 8.39001 2.32078C8.73789 2.5779 8.91939 3.04678 8.91939 3.04678C8.91939 3.04678 9.94789 5.04328 11.2335 7.2969C13.3964 11.0177 14.561 12.2579 15.3929 12.2579C15.529 12.2579 15.6651 12.2277 15.8013 12.152C17.0415 11.4714 16.6785 5.9659 16.6785 5.9659C16.6785 5.9659 16.6936 3.9694 16.0433 3.09215C15.5441 2.3964 14.5913 2.19978 14.1678 2.13928C13.835 2.0939 14.3795 1.3074 15.1055 0.944403C16.0433 0.490653 17.6011 0.399902 19.4766 0.399902H20.3841C22.1538 0.430152 22.1991 0.611652 22.8949 0.778027C24.9821 1.27715 24.2713 3.22828 24.2713 7.9019C24.2713 9.39928 23.999 11.5017 25.0729 12.2125C25.1485 12.2579 25.2544 12.2882 25.3905 12.2882C26.0863 12.2882 27.5836 11.3958 29.9734 7.3574C31.3044 5.0584 32.3329 2.77453 32.3329 2.77453C32.3329 2.77453 32.5598 2.36615 32.9076 2.1544C33.2404 1.95778 33.2404 1.95778 33.679 1.95778H33.7244C34.2084 1.95778 39.0181 1.9124 40.0769 1.9124H40.1979C41.2113 1.9124 42.1339 1.92753 42.3003 2.54765C42.5423 3.4854 41.5591 5.16428 38.9728 8.64303C34.7075 14.3452 34.2235 13.9217 37.7628 17.2189C41.1508 20.3649 41.8465 21.8925 41.9675 22.0892C43.3741 24.4184 40.4096 24.5999 40.4096 24.5999Z" fill="white"/>
</svg>
