<svg width="20" height="20" viewBox="0 0 20 20" fill="none" xmlns="http://www.w3.org/2000/svg">
<path fill-rule="evenodd" clip-rule="evenodd" d="M8.5 2C4.91014 2 2 4.91014 2 8.5C2 12.0898 4.91015 15 8.5 15C12.0898 15 15 12.0898 15 8.5C15 4.91015 12.0898 2 8.5 2ZM0 8.5C0 3.80558 3.80558 0 8.5 0C13.1944 0 17 3.80557 17 8.5C17 10.4903 16.3159 12.3209 15.17 13.7694L19.706 18.2918C20.0972 18.6818 20.0981 19.3149 19.7082 19.706C19.3182 20.0972 18.6851 20.0981 18.294 19.7082L13.7542 15.182C12.3081 16.3207 10.4834 17 8.5 17C3.80557 17 0 13.1944 0 8.5Z" fill="white"/>
</svg>
