<svg width="181" height="150" viewBox="0 0 181 150" fill="none" xmlns="http://www.w3.org/2000/svg">
<path d="M4.75833 68.6083C5.17214 68.4014 5.58614 68.2049 5.9896 68.0187C13.0036 64.7703 20.1108 61.7288 27.2076 58.6873C27.5903 58.6873 28.2316 58.2425 28.5937 58.0976C29.142 57.8597 29.6903 57.6321 30.2386 57.3941L33.394 56.0389C35.5044 55.1389 37.6043 54.2389 39.7147 53.3388C43.9252 51.5388 48.1357 49.7387 52.3461 47.9283C60.7671 44.3282 69.1986 40.7177 77.6196 37.1176C86.0406 33.5175 94.4718 29.907 102.893 26.3069C111.314 22.7068 119.745 19.0963 128.166 15.4962C136.587 11.8961 145.018 8.28561 153.439 4.68548C155.312 3.87856 157.34 2.67852 159.346 2.32678C161.033 2.02677 162.678 1.44744 164.374 1.12674C167.591 0.516375 171.14 0.268082 174.223 1.60261C175.288 2.06814 176.271 2.71988 177.088 3.53715C180.999 7.40625 180.451 13.7582 179.623 19.1998C173.861 57.1252 168.098 95.0609 162.326 132.986C161.54 138.19 160.464 143.9 156.357 147.19C152.881 149.973 147.936 150.284 143.642 149.104C139.349 147.914 135.563 145.421 131.849 142.969C116.445 132.769 101.031 122.569 85.6268 112.368C81.9646 109.948 77.8886 106.782 77.93 102.385C77.9507 99.737 79.5334 97.3783 81.1472 95.2782C94.5339 77.8155 113.848 65.8151 128.218 49.1594C130.245 46.811 131.839 42.5695 129.056 41.2143C127.401 40.4074 125.497 41.504 123.987 42.5488C104.993 55.7389 86.0095 68.9394 67.0158 82.1295C60.819 86.4331 54.3223 90.8608 46.8531 91.916C40.1701 92.8678 33.4457 91.0056 26.98 89.1021C21.5591 87.509 16.1484 85.8744 10.7586 84.1882C7.89297 83.2985 4.93423 82.3364 2.72036 80.3191C0.506495 78.3017 -0.76579 74.9085 0.568738 72.2188C1.4067 70.5325 3.03092 69.467 4.73787 68.598L4.75833 68.6083Z" fill="#FEFFFC"/>
</svg>
