<svg width="40" height="41" viewBox="0 0 40 41" fill="none" xmlns="http://www.w3.org/2000/svg">
<path d="M32.9407 34.4889C32.6111 29 28.8666 24.4333 23.8037 22.8815C26.8703 21.4482 29 18.3333 29 14.7222C29 9.75186 24.9703 5.72223 20 5.72223C15.0296 5.72223 11 9.75186 11 14.7222C11 18.3333 13.1296 21.4482 16.2 22.8815C11.137 24.4333 7.39255 29 7.06292 34.4889C7.037 34.9148 7.37404 35.2778 7.80367 35.2778C8.19255 35.2778 8.51848 34.9741 8.54441 34.5852C8.89626 28.5667 13.8926 23.7963 20 23.7963C26.1074 23.7963 31.1037 28.5667 31.4592 34.5852C31.4814 34.9741 31.8074 35.2778 32.2 35.2778C32.6296 35.2778 32.9666 34.9148 32.9407 34.4889ZM12.4814 14.7222C12.4814 10.5704 15.8481 7.20371 20 7.20371C24.1518 7.20371 27.5185 10.5704 27.5185 14.7222C27.5185 18.8741 24.1518 22.2407 20 22.2407C15.8481 22.2407 12.4814 18.8741 12.4814 14.7222Z" fill="white"/>
</svg>
